<svg width="329" height="218" viewBox="0 0 329 218" fill="none" xmlns="http://www.w3.org/2000/svg">
<path d="M16.675 66H29.455V14.025H45.655V3H0.475V14.025H16.675V66ZM79.7327 18.3C74.3777 18.3 69.7427 20.64 66.4577 24.6V0.299998H54.0827V66H66.4577V40.62C66.4577 33.6 71.3177 29.235 77.0327 29.235C81.8027 29.235 85.8527 33.285 85.8527 38.46V66H98.2277V37.155C98.2277 25.86 90.6677 18.3 79.7327 18.3ZM118.728 46.38H155.448C155.763 45.12 155.988 43.32 155.988 41.88C155.988 28.875 145.818 18.3 131.553 18.3C117.108 18.3 106.218 29.055 106.218 42.69C106.218 56.325 116.793 67.08 132.723 67.08C142.398 67.08 149.148 62.94 154.233 57.18L148.023 50.97C143.658 55.065 139.068 57.225 132.678 57.225C125.208 57.225 119.808 52.86 118.728 46.38ZM131.463 28.155C137.493 28.155 141.903 32.025 143.253 37.56H119.043C120.708 31.89 125.613 28.155 131.463 28.155ZM41.785 131.19L59.965 98.88V141H72.025V78H58.975L38.455 114.99L17.935 78H4.885V141H16.945V98.88L35.125 131.19H41.785ZM81.8723 117.69C81.8723 131.325 92.9423 142.08 107.747 142.08C122.597 142.08 133.622 131.325 133.622 117.69C133.622 104.055 122.597 93.3 107.747 93.3C92.9423 93.3 81.8723 104.055 81.8723 117.69ZM94.2923 117.69C94.2923 110.13 100.142 104.235 107.747 104.235C115.397 104.235 121.247 110.13 121.247 117.69C121.247 125.295 115.397 131.145 107.747 131.145C100.142 131.145 94.2923 125.295 94.2923 117.69ZM170.242 94.38L159.802 126.105L149.362 94.38H136.492L153.142 141H166.462L183.112 94.38H170.242ZM190.187 141H202.562V94.38H190.187V141ZM189.062 81.96C189.062 86.01 192.257 89.115 196.397 89.115C200.537 89.115 203.732 86.01 203.732 81.96C203.732 77.91 200.537 74.805 196.397 74.805C192.257 74.805 189.062 77.91 189.062 81.96ZM224.285 121.38H261.005C261.32 120.12 261.545 118.32 261.545 116.88C261.545 103.875 251.375 93.3 237.11 93.3C222.665 93.3 211.775 104.055 211.775 117.69C211.775 131.325 222.35 142.08 238.28 142.08C247.955 142.08 254.705 137.94 259.79 132.18L253.58 125.97C249.215 130.065 244.625 132.225 238.235 132.225C230.765 132.225 225.365 127.86 224.285 121.38ZM237.02 103.155C243.05 103.155 247.46 107.025 248.81 112.56H224.6C226.265 106.89 231.17 103.155 237.02 103.155ZM16.675 216H29.455V164.025H45.655V153H0.475V164.025H16.675V216ZM72.0742 179.235C73.6492 179.235 75.4492 179.595 77.0242 180.135L77.8792 169.29C76.7992 168.705 75.2242 168.3 73.6492 168.3C68.2942 168.3 64.1542 171.135 61.1842 175.095V169.38H48.8092V216H61.1842V191.295C61.1842 184.05 66.1342 179.235 72.0742 179.235ZM81.4328 192.69C81.4328 206.325 90.9278 217.08 103.933 217.08C110.458 217.08 115.723 214.56 119.458 210.42V216H131.698V169.38H119.458V174.96C115.723 170.82 110.458 168.3 103.933 168.3C90.9278 168.3 81.4328 179.055 81.4328 192.69ZM93.8528 192.69C93.8528 185.13 99.4328 179.235 106.588 179.235C113.788 179.235 119.458 185.13 119.458 192.69C119.458 200.295 113.788 206.145 106.588 206.145C99.4328 206.145 93.8528 200.295 93.8528 192.69ZM180.138 198.99C176.763 203.4 172.083 206.145 166.458 206.145C158.403 206.145 153.003 200.295 153.003 192.69C153.003 185.13 158.403 179.235 165.108 179.235C169.788 179.235 173.028 181.485 174.513 185.04H187.968C185.178 174.78 177.033 168.3 165.108 168.3C151.203 168.3 140.583 179.055 140.583 192.69C140.583 206.325 151.203 217.08 166.008 217.08C175.008 217.08 182.028 212.715 186.708 204.075L180.138 198.99ZM223.05 169.38C223.05 181.845 218.325 184.995 212.835 184.995H209.28V150.3H196.905V216H209.28V195.615H214.05L225.3 216H239.025L226.02 192.96C232.185 189.18 235.425 181.395 235.425 169.38H223.05ZM253.728 196.38H290.448C290.763 195.12 290.988 193.32 290.988 191.88C290.988 178.875 280.818 168.3 266.553 168.3C252.108 168.3 241.218 179.055 241.218 192.69C241.218 206.325 251.793 217.08 267.723 217.08C277.398 217.08 284.148 212.94 289.233 207.18L283.023 200.97C278.658 205.065 274.068 207.225 267.678 207.225C260.208 207.225 254.808 202.86 253.728 196.38ZM266.463 178.155C272.493 178.155 276.903 182.025 278.253 187.56H254.043C255.708 181.89 260.613 178.155 266.463 178.155ZM323.178 179.235C324.753 179.235 326.553 179.595 328.128 180.135L328.983 169.29C327.903 168.705 326.328 168.3 324.753 168.3C319.398 168.3 315.258 171.135 312.288 175.095V169.38H299.913V216H312.288V191.295C312.288 184.05 317.238 179.235 323.178 179.235Z" fill="black"/>
</svg>
